<!DOCTYPE svg PUBLIC "-//W3C//DTD SVG 20010904//EN" "http://www.w3.org/TR/2001/REC-SVG-20010904/DTD/svg10.dtd">
<svg version="1.0" xmlns="http://www.w3.org/2000/svg" width="1600px" height="751px" viewBox="0 0 16000 7510" preserveAspectRatio="xMidYMid meet">
<g id="layer1" fill="#4572c4" stroke="none">
 <path d="M8160 6160 c-136 -21 -267 -89 -369 -190 -216 -215 -257 -542 -100 -807 41 -68 136 -167 201 -208 l48 -30 0 -1166 0 -1166 -56 -38 c-76 -53 -165 -152 -207 -233 -58 -112 -78 -192 -78 -312 0 -127 16 -196 73 -310 114 -227 367 -372 623 -357 174 11 313 73 435 196 86 87 127 152 166 266 24 70 28 95 27 200 0 140 -23 229 -91 343 -44 74 -164 194 -225 227 l-37 20 0 1160 0 1161 64 42 c119 78 212 201 262 347 24 70 28 94 27 200 0 102 -4 131 -26 196 -91 268 -322 446 -599 463 -45 3 -108 1 -138 -4z m278 -136 c95 -31 164 -76 230 -148 104 -115 145 -219 145 -371 0 -152 -44 -264 -146 -372 -182 -193 -466 -233 -692 -98 -115 69 -197 172 -242 304 -32 95 -32 240 1 333 46 130 116 222 220 289 150 98 315 120 484 63z m-49 -3479 c317 -75 503 -412 396 -718 -31 -90 -74 -154 -149 -224 -77 -72 -142 -108 -242 -133 -92 -24 -154 -25 -249 -5 -189 40 -347 183 -412 374 -28 82 -31 229 -7 312 56 191 217 349 402 393 76 19 183 19 261 1z"/>
 <path d="M8196 5938 c-153 -20 -295 -141 -346 -294 -19 -55 -22 -82 -18 -162 3 -84 8 -106 36 -163 41 -86 123 -169 210 -211 63 -31 72 -33 182 -33 108 0 119 2 181 31 174 83 281 279 251 461 -16 94 -60 181 -126 246 -104 104 -223 145 -370 125z"/>
 <path d="M8144 2425 c-133 -36 -250 -147 -294 -280 -33 -100 -26 -226 17 -318 85 -179 274 -281 459 -250 236 41 403 264 366 489 -20 122 -76 214 -175 289 -102 77 -246 104 -373 70z"/>
 <path d="M2240 5144 c-14 -2 -56 -9 -95 -15 -272 -44 -485 -225 -569 -484 -48 -149 -49 -161 -55 -910 l-6 -710 -212 -3 -213 -2 0 -300 0 -300 215 0 215 0 0 -289 c0 -267 1 -290 18 -295 80 -24 793 -226 797 -226 2 0 6 181 7 403 l3 402 298 3 297 2 0 300 0 300 -297 2 -298 3 0 600 c0 595 0 601 23 672 29 95 73 150 147 188 54 28 66 30 164 30 108 -1 113 -2 249 -62 9 -4 12 60 12 300 l0 305 -65 26 c-102 41 -220 58 -425 61 -102 2 -196 2 -210 -1z"/>
 <path d="M13390 5135 c-450 -63 -769 -274 -950 -630 -96 -188 -138 -375 -147 -646 -14 -459 93 -794 345 -1077 273 -307 667 -456 1118 -422 207 16 349 54 500 134 292 156 490 439 559 801 22 113 36 354 33 535 l-3 155 -871 3 -871 2 9 61 c11 81 49 188 88 249 46 72 134 148 215 186 285 135 766 101 1103 -76 l92 -48 0 297 0 297 -47 23 c-118 57 -315 116 -468 140 -209 33 -531 40 -705 16z m687 -1743 c-15 -231 -108 -390 -263 -451 -89 -35 -230 -40 -322 -12 -171 52 -316 225 -372 446 -11 43 -20 84 -20 92 0 11 87 13 491 13 l492 0 -6 -88z"/>
 <path d="M3907 5083 c-5 -8 -51 -169 -162 -563 -37 -129 -95 -336 -130 -460 -35 -124 -84 -297 -109 -385 -24 -88 -78 -279 -120 -425 -41 -146 -109 -386 -151 -535 -41 -148 -78 -276 -80 -283 -4 -10 81 -12 417 -10 l422 3 9 45 c5 25 31 151 58 280 28 129 66 309 85 400 19 91 45 217 59 280 13 63 40 192 60 285 20 94 51 242 70 331 26 121 65 369 65 412 0 2 5 0 10 -3 6 -3 10 -25 10 -48 0 -61 26 -207 55 -317 15 -52 66 -247 116 -432 49 -186 130 -492 180 -680 50 -189 103 -390 118 -448 l28 -105 394 -3 394 -2 88 372 c116 489 260 1096 302 1278 19 80 39 200 46 268 12 121 23 153 33 90 3 -18 12 -85 21 -148 13 -87 332 -1720 360 -1837 l5 -23 380 0 c209 0 380 3 380 7 0 6 -30 111 -155 543 -30 102 -92 318 -139 480 -46 162 -115 399 -151 525 -36 127 -123 426 -191 665 -69 239 -128 438 -130 442 -3 4 -198 8 -434 8 -400 0 -429 -1 -434 -17 -21 -70 -398 -1585 -410 -1648 -8 -44 -18 -117 -22 -163 -3 -46 -10 -80 -14 -75 -3 4 -12 55 -19 113 -12 101 -51 263 -179 740 -34 124 -102 378 -152 565 -50 187 -95 354 -100 370 -5 17 -14 49 -20 73 l-11 42 -424 0 c-233 0 -426 -3 -428 -7z"/>
 <path d="M9237 5083 c-4 -3 -7 -604 -7 -1335 l0 -1328 415 0 415 0 2 212 3 211 36 -54 c210 -316 539 -467 934 -429 239 22 390 90 527 239 103 111 168 251 216 461 l26 115 3 958 4 957 -408 -2 -408 -3 -5 -840 c-5 -822 -6 -842 -27 -917 -59 -208 -169 -315 -346 -338 -244 -31 -430 94 -530 357 -22 58 -22 63 -27 898 l-5 840 -406 3 c-223 1 -408 -1 -412 -5z"/>
 </g>

</svg>